<svg version="1.2" baseProfile="tiny-ps" xmlns="http://www.w3.org/2000/svg" viewBox="0 0 2320 693" width="2320" height="693">
	<title>Layer 1</title>
	<style>
		tspan { white-space:pre }
		.shp0 { fill: #ff2e17 } 
		.shp1 { fill: #4ec9d0 } 
		.shp2 { fill: #ff573a } 
		.shp3 { fill: #ff6c5c } 
		.shp4 { fill: #ffa32c } 
	</style>
	<g id="Layer 1">
		<g id="&lt;Group&gt;">
			<path id="&lt;Path&gt;" class="shp0" d="M770.85 329.67C776.24 334.38 780.2 340.56 780.6 346.47L780.69 460.94C780.26 467.67 777.34 470.56 770.85 474.07L818.29 474.07C812.89 470.54 808.61 466.81 808.24 460.88L808.24 430.33C808.68 418.01 818.41 416.1 823.77 425.74L834.18 474.52C836.74 486.59 841.81 494.05 848.82 498.41C857.68 504.92 890.65 503.15 896.76 485.15C881.55 491.7 867.04 497.57 862.52 474.09L850.75 416.45C849.88 409.64 843.49 400.77 837.75 397.34L875.9 346.36C880.2 341.55 891.58 331.97 897.16 329.67L842.34 329.67C849.39 337.26 847.09 341.52 842.97 346.48L808.21 388.75L808.24 346.48C808.76 339.57 809.54 334.61 817.69 329.67L770.85 329.67Z" />
			<path id="&lt;Path&gt;" class="shp0" d="M373.68 329.65C379.38 334.77 380.67 339.32 380.67 346.4L380.67 460.92C380.72 466.38 377.74 470.49 372.78 474.06L420.68 474.06C416.13 470.67 411.78 466.66 410.83 460.96L410.83 354.16L433.53 354.16C468.97 356.13 481.6 425.55 454.79 444.78C433.16 413.69 394.74 452.18 429.27 472.32C511.96 496.34 522.97 329.68 437.42 329.67L373.68 329.65Z" />
			<path id="&lt;Path&gt;" class="shp0" d="M492.14 329.67C497.83 334.51 501.26 338.68 501.34 346.47L501.36 433.42C501.59 467.73 524.12 474.29 549.86 475.07C579 470.78 590.9 450.53 584.62 435.38C572.18 417.05 549.26 429.09 554.41 447.49C563.65 463.35 532.55 462.23 532.83 443.03L532.79 406.12C540.95 400.47 548.3 400.28 559.17 406.52L559.1 373.83C553.66 376.85 541.1 378.16 532.79 374.38L532.83 349.43L555.17 349.42C560.95 350.83 569.8 355.16 575.43 363.23L575.43 329.65C547.66 329.65 519.91 329.65 492.14 329.67Z" />
			<path id="&lt;Path&gt;" class="shp0" d="M583.11 329.67C588.78 334.51 592.2 338.68 592.31 346.47L592.32 433.42C592.53 467.73 615.05 474.29 640.78 475.07C669.94 470.78 681.86 450.53 675.56 435.38C663.16 417.05 640.2 429.09 645.38 447.49C654.6 463.35 623.51 462.23 623.78 443.03L623.73 406.12C631.91 400.47 639.24 400.28 650.1 406.52L650.05 373.83C644.6 376.85 632.05 378.16 623.73 374.38L623.78 349.43L646.11 349.42C651.88 350.83 660.75 355.16 666.38 363.23L666.38 329.65C638.63 329.65 610.87 329.65 583.11 329.67Z" />
			<path id="&lt;Path&gt;" class="shp0" d="M674.44 329.73C679.38 335.04 682.98 339.09 685.58 346.36L685.59 460.59C685.67 466.03 682.6 470.95 677.75 474.01L724.31 474.01C719.69 470.15 715.61 466.4 715.21 460.77L715.13 369.09C715.2 348.89 742.31 347.19 748.44 364.55C750.72 370.92 748.08 378.23 744.62 382.02C728.7 355.3 704.46 383.5 724.93 400.18C742.6 408.89 770.51 403.15 775.02 374.19C777.9 351.4 762.49 334.14 741.34 329.67L674.44 329.73Z" />
			<path id="&lt;Path&gt;" class="shp0" d="M1010.95 473.95C1015.87 468.64 1019.49 464.59 1022.07 457.31L1022.09 343.09C1022.15 337.65 1019.1 332.72 1014.22 329.67L1060.78 329.67C1056.17 333.5 1052.09 337.28 1051.67 342.92L1051.62 445.27C1052.07 456.2 1065.44 463.18 1074.25 455.32C1074.83 455.46 1072.77 451.3 1072.77 448.24C1072.77 439.87 1079.64 433.03 1088.03 433.03C1096.42 433.03 1103.27 439.87 1103.27 448.24C1103.27 449.54 1101.67 455.32 1101.7 455.32C1098.38 466.77 1079.83 474.61 1064.09 474.01L1010.95 473.95Z" />
			<path id="&lt;Compound Path&gt;" fill-rule="evenodd" class="shp0" d="M1085.87 329.72L1198.87 329.72C1193.95 334.15 1188.37 338.85 1190.32 346.38L1228.22 460.88C1229.9 465.9 1232.74 470.41 1238.65 474.06L1186.69 474.06C1191.81 470.85 1198.31 465.75 1196.31 458.76L1182.45 416.88L1152.58 416.88L1133.83 460.82C1131.8 465.9 1135.36 471.21 1141.26 474.08L1092.51 474.08C1097.66 468.07 1101.17 463.15 1104.57 455.05L1120.92 416.88L1086.65 416.88L1086.62 402.19L1127.18 402.13L1152.33 343.36L1100.62 343.26C1102.49 353.27 1096.32 362.9 1085.87 362.9C1076.74 362.9 1069.3 355.43 1069.3 346.31C1069.3 336.28 1076.41 330.28 1085.87 329.72ZM1158.92 402.19L1177.72 402.19L1169.46 377.2L1158.92 402.19Z" />
			<path id="&lt;Compound Path&gt;" fill-rule="evenodd" class="shp0" d="M919.06 329.72L973.09 329.72C968.13 334.15 962.56 338.85 964.51 346.38L1002.42 460.88C1004.09 465.9 1006.92 470.41 1012.85 474.06L960.89 474.06C966 470.85 972.52 465.75 970.51 458.76L956.66 416.88L926.79 416.88L908.02 460.82C906 465.9 909.56 471.21 915.46 474.08L866.71 474.08C871.85 468.07 875.38 463.15 878.77 455.05L895.08 416.88L888.02 416.88C893.63 432.45 866.94 440.69 863.33 420.71C861.95 412.2 869.11 402.58 880.55 402.22L901.4 402.13L925.21 346.38C928.59 338.68 922.94 334.33 919.06 329.72ZM933.12 402.19L951.92 402.19L943.66 377.2L933.12 402.19Z" />
			<path id="&lt;Compound Path&gt;" fill-rule="evenodd" class="shp1" d="M2317.14 417.67C2280.79 466.34 2255.18 490.71 2240.3 490.71C2233.33 490.71 2224.35 485.66 2213.61 475.48C2202.33 469.95 2196.74 462.65 2196.74 453.35C2196.74 451.66 2196.89 449.82 2197.2 447.97C2199.88 426.49 2205.33 402.76 2213.61 376.78C2208.09 373.81 2205.25 371.01 2205.25 368.36C2205.25 366.11 2206.86 365.07 2210.01 365.07C2212.38 365.07 2214.83 365.79 2217.44 367.15C2230.71 335.88 2242.76 313.6 2253.34 300.44C2260.24 291.7 2266.45 287.3 2272.05 287.3C2274.58 287.3 2280.87 289.54 2290.91 294.11C2290.15 289.38 2291.37 286.66 2294.67 285.85L2305.25 285.85C2311.7 285.85 2314.92 287.06 2314.92 289.38C2314.92 289.86 2314.69 291.23 2314.22 293.39C2313.77 295.64 2313.61 297.64 2313.61 299.49C2313.61 305.18 2313.69 312.16 2313.77 320.41C2313.92 328.75 2314 334.28 2314 337.09C2314 356.49 2308.93 370.04 2298.74 377.74C2289.46 384.79 2278.95 388.32 2267.3 388.32C2261.16 388.32 2250.95 386.56 2236.77 383.11C2234.17 388 2231.33 397.46 2228.19 411.58C2224.05 429.45 2222.05 445.25 2222.35 459.04C2222.51 467.14 2224.96 471.23 2229.79 471.23C2231.56 471.23 2233.86 470.75 2236.77 469.78C2254.1 463.37 2278.34 443.81 2309.32 411.09C2311.24 409.09 2313.23 408.04 2315.15 408.04C2317.99 408.04 2319.44 409.41 2319.44 412.3C2319.44 413.98 2318.68 415.83 2317.14 417.67ZM2290.91 313.83C2290.91 307.74 2289.61 304.69 2287.09 304.69C2285.39 304.69 2283.02 305.9 2279.87 308.47C2265.23 320.81 2252.34 342.54 2241.22 373.49C2244.21 373.97 2249.5 374.45 2256.94 374.93C2269.06 375.41 2278.19 372.53 2284.16 366.19C2288.62 361.54 2291.14 353.77 2291.52 342.94C2291.14 350.96 2290.91 341.26 2290.91 313.83ZM2192.53 318.57C2146.52 568 2086.78 692.68 2013.23 692.53C1986.7 692.53 1958.01 677.21 1927.18 646.66C1924.35 643.85 1922.9 640.97 1922.9 638C1922.9 633.43 1924.88 631.18 1928.95 631.18C1931.02 631.18 1933.09 632.07 1935.01 633.75C1959.47 655.56 1981.33 666.46 2000.66 666.46C2062.32 666.46 2113.77 571.69 2154.96 382.23C2129.96 427.13 2108.17 459.36 2089.62 478.76C2082.1 486.7 2075.43 490.71 2069.6 490.71C2064.23 490.71 2057.56 487.58 2049.58 481.33C2035.4 473.95 2028.57 461.93 2029.18 445.17C2030.03 424.64 2037.62 399.23 2051.88 368.84C2065.77 339.25 2080.33 316.88 2095.44 301.89C2103.96 293.39 2111.7 289.14 2118.61 289.14C2123.66 289.14 2129.26 291.54 2135.4 296.2C2136.32 297 2142.3 302.53 2153.42 312.88C2155.65 314.96 2156.79 316.97 2156.79 319.05C2156.79 321.86 2154.96 323.21 2151.35 323.21C2149.13 323.21 2146.6 322.57 2143.76 321.13C2139.24 318.64 2134.86 317.36 2130.49 317.36C2124.2 317.36 2118.53 319.69 2113.39 324.42C2102.5 334.44 2091 350.72 2079.03 373.25C2066 398.02 2058.02 420.55 2055.03 440.92C2054.27 446.37 2053.88 451.18 2053.88 455.28C2053.88 466.82 2056.87 472.67 2062.85 472.67C2066.92 472.67 2071.21 470.51 2075.66 466.26C2093.53 450.3 2111.17 427.21 2128.73 396.98C2144.99 369.16 2156.64 343.5 2163.54 320.17C2166.08 311.91 2167.38 303.98 2167.38 296.44C2167.38 290.5 2168.69 287.54 2171.37 287.54C2174.2 287.54 2179.8 290.82 2188.01 297.4C2192.91 301.33 2194.45 308.39 2192.53 318.57ZM2025.13 328.19C2011.33 368.12 2001.82 401.63 1996.6 428.73C1998.83 426.49 2001.82 423.12 2005.5 418.63C2009.18 414.06 2011.4 411.42 2012.32 410.61C2014.39 407.81 2016.7 406.36 2019.07 406.36C2021.29 406.36 2022.45 407.57 2022.45 409.89C2022.45 411.34 2021.83 412.94 2020.61 414.86C2006.57 436.59 1997.22 458.64 1992.54 480.85C1991.23 487.1 1989.16 490.23 1986.48 490.23C1983.95 490.23 1979.19 487.75 1972.37 482.77C1968.3 479.89 1966 477.56 1965.39 475.72C1964.62 473.95 1964.62 470.51 1965.39 465.37C1971.68 425.61 1979.49 392.57 1988.93 366.19C1975.9 388.32 1958.18 412.78 1935.71 439.48C1916.07 462.89 1901.97 477.72 1893.22 484.14C1886.94 488.71 1882.18 490.96 1878.88 490.96C1876.2 490.96 1872.06 488.71 1866.53 484.14C1858.56 479.17 1854.57 472.27 1854.57 463.45C1854.57 461.77 1854.73 459.76 1855.03 457.6C1857.71 434.42 1867.46 407.48 1884.25 376.7C1901.04 345.91 1920.29 319.93 1942 298.84C1949.05 291.95 1955.34 288.58 1960.87 288.74C1966.23 289.06 1976.51 296.44 1991.69 311.03C1993 312.32 1993.69 313.6 1993.69 315.04C1993.69 317.52 1992.08 318.81 1988.93 318.81C1987.78 318.81 1986.64 318.57 1985.56 318.08C1974.98 313.35 1966.39 313.51 1959.95 318.57C1945.91 329.31 1930.34 348.39 1913.24 375.65C1893.45 406.93 1881.57 435.14 1877.5 460.16C1877.35 461.29 1877.27 462.33 1877.27 463.21C1877.27 467.14 1878.81 469.14 1881.8 469.14C1886.86 469.14 1892.92 465.46 1899.97 458.08C1916.77 441 1934.71 419.51 1953.89 393.7C1973.52 366.92 1986.1 346.71 1991.69 333.08C1995.68 323.06 1998.29 316 1999.51 311.99C2001.43 304.94 2003.58 301.41 2005.81 301.41C2008.03 301.41 2013.32 304.62 2021.52 311.03C2024.97 313.67 2026.89 316.08 2027.13 318.33C2027.43 320.17 2026.82 323.46 2025.13 328.19ZM1901.14 184.91C1905.35 187.23 1907.43 189.88 1907.43 192.85C1907.43 194.93 1906.05 195.89 1903.2 195.89C1902.59 195.89 1901.67 195.81 1900.37 195.57C1899.06 195.33 1898.15 195.25 1897.53 195.25C1891.85 195.25 1884.95 201.74 1876.9 214.73C1869.69 226.28 1859.72 251.54 1846.99 290.34C1845.84 293.79 1845.38 295.8 1845.69 296.44C1846.07 297.56 1848.07 298.2 1851.51 298.36C1860.33 299.17 1872.15 298.84 1887.02 297.4C1892.09 296.92 1894.62 299.17 1894.62 304.21C1894.62 307.66 1892.7 309.75 1888.79 310.55C1885.64 311.03 1869.08 312.47 1839.17 314.8C1821.15 369.72 1810.26 416.23 1806.35 454.31C1806.19 456.32 1806.12 458.16 1806.12 459.68C1806.12 465.05 1807.42 467.7 1809.95 467.7C1814.02 467.7 1826.21 457.44 1846.53 436.91C1848.99 434.42 1851.29 433.14 1853.51 433.14C1855.5 433.14 1856.65 434.03 1857.11 435.79C1857.57 437.63 1856.89 439.8 1855.12 442.36C1842.93 459.12 1831.04 473.31 1819.38 485.1C1814.4 489.91 1810.33 492.4 1807.04 492.4C1803.74 492.4 1798.6 489.67 1791.78 484.14C1783.18 481.81 1778.97 477.08 1778.97 470.03C1778.97 468.99 1779.04 467.7 1779.35 466.26C1784.95 425.93 1795.76 376.14 1811.94 317.12C1804.05 316 1796.84 314.96 1790.39 313.83C1787.56 313.35 1786.1 311.51 1786.1 308.22C1786.1 304.62 1787.64 302.45 1790.63 301.65C1793.61 300.85 1799.14 299.17 1807.27 296.44C1812.17 294.75 1817.01 292.43 1821.61 289.38C1837.63 237.58 1850.21 203.99 1859.33 188.67C1864.63 179.86 1870.23 175.53 1876.21 175.53C1881.89 175.53 1890.24 178.66 1901.14 184.91ZM1762.95 324.9C1759.35 345.99 1749.99 381.19 1734.88 430.34C1739.26 426.25 1745.24 418.87 1752.83 408.04C1753.9 406.6 1754.98 405.96 1755.97 405.96C1758.43 405.96 1758.73 408.13 1756.89 412.54C1756.12 414.22 1749.84 424.97 1738.03 444.69C1729.05 459.68 1722.45 472.99 1718.24 484.62C1716.94 488.22 1714.41 489.99 1710.88 489.99C1707.27 489.99 1702.36 488.22 1696.23 484.62C1692.32 482.46 1690.4 480.77 1690.4 479.65C1690.4 478.76 1691.25 476.68 1692.85 473.56C1700.98 458.72 1709.95 433.79 1719.85 398.91C1729.29 365.07 1734.57 339.89 1735.8 323.46C1736.26 316.4 1735.58 312.88 1733.73 312.88C1732.43 312.88 1730.05 314.64 1726.6 318.08L1712.64 331.72C1711.05 333.23 1709.7 334.27 1708.62 334.85C1707.31 345.76 1705.19 356.36 1702.3 366.67C1700.69 372.37 1698.39 375.18 1695.55 375.18C1693.48 375.18 1688.8 372.05 1681.68 365.79C1678.07 362.67 1677.15 358.18 1678.91 352.4C1683.13 338.13 1685.2 326.66 1685.2 318.08C1685.2 315.12 1684.66 313.6 1683.44 313.6C1681.68 313.6 1678.68 316.4 1674.69 322.09C1643.48 364.51 1620.24 412.14 1604.83 464.89C1599.85 481.65 1595.63 489.99 1592.25 489.99C1590.87 489.99 1584.97 487.26 1574.46 481.81C1569.4 479.17 1567.64 473.95 1569.32 466.26C1581.13 412.14 1593.86 366.35 1607.51 329.15C1596.39 341.33 1589.34 349.68 1586.35 354.25C1585.2 356.09 1583.51 357.05 1581.44 357.05C1578.91 357.05 1577.61 355.93 1577.61 353.53C1577.61 352.16 1578.22 350.56 1579.45 348.87C1586.73 339.57 1596.55 325.54 1608.82 306.54C1612.58 299.65 1616.33 296.2 1620.09 296.2C1622.77 296.2 1628.22 298.44 1636.5 302.77C1641.11 305.34 1641.87 308.71 1638.73 312.88C1635.43 317.44 1629.21 333.48 1620.09 361.06C1611.43 387.84 1605.37 408.85 1602.07 424C1622.47 376.54 1645.63 334.68 1671.55 298.36C1676.45 291.47 1680.45 288.02 1683.44 288.02C1686.12 288.02 1689.8 289.86 1694.48 293.63C1700.77 294.43 1704.68 295.47 1706.37 296.68C1708.9 298.6 1710.21 302.37 1710.21 307.98C1710.21 313.48 1710.01 318.9 1709.63 324.26C1715.94 315.18 1722.66 306.55 1729.75 298.36C1732.12 295.72 1734.42 294.35 1736.65 294.35C1739.1 294.35 1742.63 296.04 1747.23 299.49C1754.13 301.41 1757.96 302.53 1758.73 303.01C1762.11 305.25 1763.87 309.27 1763.87 315.28C1763.87 318.08 1763.56 321.29 1762.95 324.9ZM1794.63 222.03C1797.08 223.87 1798.23 225.97 1798.23 228.36C1798.23 232.86 1791.79 239.92 1778.9 249.45C1770.39 255.62 1762.11 257.79 1754.21 256.03C1749.69 255.15 1745.85 253.38 1742.55 250.89C1741.48 249.93 1740.71 248.97 1740.17 247.93C1739.64 246.97 1739.56 246.09 1739.79 245.52C1740.25 244.88 1741.17 244.72 1742.55 245.04C1756.28 232.46 1765.32 223.47 1769.7 218.02C1773.15 213.93 1775.61 211.93 1777.14 211.93C1779.82 211.93 1785.65 215.3 1794.63 222.03ZM1563.42 417.67C1527.07 466.34 1501.47 490.71 1486.58 490.71C1479.61 490.71 1470.64 485.66 1459.89 475.48C1448.63 469.95 1443.02 462.65 1443.02 453.35C1443.02 451.66 1443.18 449.82 1443.49 447.97C1446.17 426.49 1451.61 402.76 1459.89 376.78C1454.38 373.81 1451.54 371.01 1451.54 368.36C1451.54 366.11 1453.15 365.07 1456.29 365.07C1458.67 365.07 1461.12 365.79 1463.73 367.15C1477 335.88 1489.04 313.6 1499.62 300.44C1506.53 291.7 1512.74 287.3 1518.33 287.3C1520.86 287.3 1527.15 289.54 1537.2 294.11C1536.43 289.38 1537.66 286.66 1540.96 285.85L1551.54 285.85C1557.98 285.85 1561.2 287.06 1561.2 289.38C1561.2 289.86 1560.97 291.23 1560.51 293.39C1560.05 295.64 1559.9 297.64 1559.9 299.49C1559.9 305.18 1559.98 312.16 1560.05 320.41C1560.2 328.75 1560.29 334.28 1560.29 337.09C1560.29 356.49 1555.23 370.04 1545.02 377.74C1535.74 384.79 1525.24 388.32 1513.58 388.32C1507.45 388.32 1497.24 386.56 1483.06 383.11C1480.45 388 1477.61 397.46 1474.47 411.58C1470.33 429.45 1468.33 445.25 1468.64 459.04C1468.79 467.14 1471.25 471.23 1476.08 471.23C1477.85 471.23 1480.14 470.75 1483.06 469.78C1500.39 463.37 1524.62 443.81 1555.61 411.09C1557.52 409.09 1559.51 408.04 1561.43 408.04C1564.27 408.04 1565.73 409.41 1565.73 412.3C1565.73 413.98 1564.96 415.83 1563.42 417.67ZM1537.2 313.83C1537.2 307.74 1535.9 304.69 1533.37 304.69C1531.67 304.69 1529.3 305.9 1526.15 308.47C1511.51 320.81 1498.63 342.54 1487.5 373.49C1490.5 373.97 1495.79 374.45 1503.23 374.93C1515.34 375.41 1524.47 372.53 1530.45 366.19C1534.9 361.54 1537.43 353.77 1537.81 342.94C1537.43 350.96 1537.2 341.26 1537.2 313.83ZM1446.41 120.04C1448.33 121.65 1449.32 123.33 1449.32 125.25C1449.32 128.06 1447.64 129.42 1444.19 129.42C1442.66 129.42 1441.12 128.94 1439.43 128.06C1432.53 124.45 1427.39 122.61 1423.94 122.61C1414.82 122.61 1404.62 132.15 1393.42 151.31C1353.85 218.67 1324.55 306.78 1305.53 415.83C1329.92 366.76 1357.91 327.63 1389.35 298.36C1396.11 292.11 1401.01 288.98 1404.15 288.98C1405.08 288.98 1408.83 291.15 1415.43 295.55C1423.33 299 1427.85 301.16 1428.85 302.13C1432.76 305.74 1434.75 311.99 1434.75 320.89C1434.75 323.38 1434.6 326.11 1434.29 329.15C1431.76 356.97 1424.1 390.73 1411.37 430.34C1415.97 423.76 1423.33 414.14 1433.38 401.47C1435.75 398.83 1437.82 397.46 1439.43 397.46C1441.12 397.46 1441.89 398.5 1441.89 400.51C1441.89 402.84 1440.97 405.56 1438.97 408.53C1430.3 421.68 1418.8 440.92 1404.38 466.26C1403.16 468.82 1400.25 475.4 1395.64 486.06C1393.64 491.04 1390.96 493.52 1387.52 493.52C1383.68 493.52 1378.01 490.8 1370.72 485.34C1367.73 483.1 1367.2 479.65 1369.11 474.99C1394.88 407.32 1408.53 356.81 1409.99 323.46C1410.44 313.92 1409.22 309.19 1406.23 309.19C1404.23 309.19 1400.09 311.83 1393.8 317.12C1382.3 326.83 1368.11 344.07 1351.39 368.84C1329.23 401.4 1312.05 434.67 1299.93 468.66C1296.63 478.37 1293.57 483.18 1290.73 483.18C1288.12 483.18 1283.14 479.97 1275.62 473.56C1271.94 470.27 1270.64 464.81 1271.86 457.12C1289.2 357.69 1311.82 272.7 1339.66 202.31C1360.36 149.79 1379 115.47 1395.64 99.36C1399.86 95.35 1403.92 93.26 1407.99 93.26C1412.21 93.26 1417.5 95.75 1423.94 100.8C1431.46 107.21 1438.89 113.63 1446.41 120.04Z" />
			<path id="&lt;Path&gt;" class="shp0" d="M1779.61 205.1C1782.06 206.94 1783.21 209.02 1783.21 211.43C1783.21 215.92 1776.77 222.98 1763.89 232.52C1755.38 238.69 1747.09 240.86 1739.2 239.09C1734.67 238.21 1730.83 236.44 1727.54 233.95C1726.46 233 1725.69 232.03 1725.16 230.99C1724.62 230.03 1724.54 229.15 1724.78 228.58C1725.24 227.95 1726.16 227.79 1727.54 228.11C1741.27 215.52 1750.31 206.54 1754.68 201.09C1758.14 197 1760.59 194.99 1762.12 194.99C1764.81 194.99 1770.63 198.36 1779.61 205.1Z" />
			<path id="&lt;Compound Path&gt;" class="shp0" d="M1706.5 253.16C1698.26 266.82 1691.57 273.63 1686.51 273.63C1680.28 273.63 1671.36 264.73 1659.8 246.94C1648.19 229.15 1638.23 209.17 1629.99 187.05C1619.38 201 1612.06 217.34 1607.96 236.05C1607 240.23 1605.87 242.32 1604.5 242.32C1603.99 242.32 1602.91 241.98 1601.32 241.3C1593.95 237.9 1590.26 234.45 1590.26 230.94C1590.26 230.46 1590.8 227.25 1591.85 221.37C1602.09 161.09 1615.42 109.56 1631.85 66.88C1644.1 34.93 1655.2 14.18 1665.04 4.45C1667.54 1.93 1669.99 0.61 1672.36 0.61C1674.87 0.61 1678.06 2.17 1681.97 5.33C1686.43 9.22 1690.88 13.11 1695.3 16.99C1696.58 17.97 1697.17 18.99 1697.17 20.16C1697.17 21.86 1696.17 22.69 1694.12 22.69C1693.16 22.69 1692.16 22.4 1691.2 21.86C1687.11 19.67 1684.02 18.56 1681.97 18.56C1676.36 18.56 1670.27 24.34 1663.58 35.95C1639.68 77.62 1622.48 131.97 1611.97 199.01C1614.11 194.39 1618.97 185.49 1626.53 172.36C1625.53 169.06 1625.03 167.12 1625.03 166.53C1625.03 164.25 1628.08 162.49 1634.13 161.28C1646.19 142.47 1656.12 129.83 1663.86 123.41C1666.63 121.13 1668.72 119.96 1670.27 119.96C1671.77 119.96 1674.55 122.29 1678.65 126.96C1685.06 129.68 1688.24 133.14 1688.24 137.22C1688.24 138.53 1688.06 140.24 1687.7 142.32C1686.02 150.2 1683.65 157.15 1680.51 163.13C1678.92 166.24 1677.23 167.85 1675.46 167.85C1674.23 167.85 1672.27 167.31 1669.58 166.24C1664.53 164.34 1661.99 162.4 1661.99 160.41C1661.99 159.2 1662.81 158.22 1664.4 157.59C1668.13 154.14 1670.45 147.43 1671.31 137.36C1671.5 134.99 1670.91 133.77 1669.58 133.77C1668.77 133.77 1667.72 134.3 1666.4 135.37C1656.61 142.96 1648.19 153.94 1641.19 168.38C1654.7 212.91 1670.09 240.81 1687.34 252C1689.43 253.31 1691.62 253.99 1693.85 253.99C1697.03 253.99 1699.49 253.02 1701.17 251.03C1702.86 249.03 1704.41 248.01 1705.73 248.01C1706.95 248.01 1707.59 248.74 1707.59 250.15C1707.59 251.03 1707.23 252 1706.5 253.16ZM1651.75 16.99C1652.9 17.97 1653.49 18.94 1653.49 20.01C1653.49 21.81 1652.49 22.69 1650.44 22.69C1649.53 22.69 1648.62 22.4 1647.62 21.86C1643.52 19.67 1640.47 18.56 1638.43 18.56C1632.83 18.56 1626.68 24.34 1620.04 35.95C1595.82 78.01 1578.62 132.36 1568.42 199.01C1568.15 200.8 1567.69 203.24 1567.11 206.3C1569.15 204.01 1572.16 200.32 1576.16 195.16C1578.48 192.25 1580.16 190.74 1581.21 190.74C1583.53 190.74 1583.72 192.25 1581.76 195.16C1573.21 208.19 1567.56 221.81 1564.83 236.05C1563.83 239.55 1562.6 241.3 1561.09 241.3C1560.37 241.3 1559.46 240.91 1558.27 240.04C1553.77 236.83 1551.17 234.93 1550.53 234.35C1548.77 232.46 1547.9 229.98 1547.9 226.91C1547.9 225.41 1548.12 223.56 1548.54 221.37C1558.87 160.9 1572.16 109.41 1588.4 66.88C1600.7 34.74 1611.67 13.98 1621.36 4.45C1624.04 1.83 1626.68 0.52 1629.37 0.61C1631.73 0.72 1634.87 2.32 1638.7 5.48C1643.07 9.27 1647.39 13.11 1651.75 16.99ZM1540.45 141.21C1538.31 153.99 1532.76 175.33 1523.79 205.14C1526.38 202.66 1529.93 198.18 1534.44 191.62C1535.08 190.74 1535.71 190.36 1536.31 190.36C1537.76 190.36 1537.94 191.67 1536.85 194.34C1536.4 195.36 1532.66 201.87 1525.65 213.84C1520.33 222.92 1516.42 230.99 1513.91 238.04C1513.14 240.23 1511.63 241.3 1509.54 241.3C1507.4 241.3 1504.49 240.23 1500.85 238.04C1498.53 236.73 1497.39 235.71 1497.39 235.03C1497.39 234.49 1497.89 233.23 1498.84 231.34C1503.67 222.34 1509 207.23 1514.87 186.07C1520.47 165.56 1523.61 150.3 1524.33 140.33C1524.61 136.05 1524.2 133.92 1523.1 133.92C1522.33 133.92 1520.92 134.99 1518.87 137.08L1510.59 145.34C1507.68 148.16 1506.18 148.31 1506.18 145.77C1506.18 145 1506.59 144.03 1507.4 142.91C1511.55 136.63 1516.01 130.7 1520.74 125.12C1522.15 123.51 1523.52 122.69 1524.84 122.69C1526.29 122.69 1528.39 123.71 1531.12 125.79C1535.22 126.96 1537.49 127.64 1537.94 127.93C1539.95 129.3 1540.99 131.73 1540.99 135.37C1540.99 137.08 1540.81 139.02 1540.45 141.21ZM1559.24 78.83C1560.7 79.96 1561.39 81.22 1561.39 82.67C1561.39 85.4 1557.56 89.67 1549.91 95.46C1544.86 99.21 1539.95 100.52 1535.26 99.45C1532.57 98.91 1530.3 97.84 1528.34 96.34C1527.71 95.75 1527.25 95.17 1526.93 94.54C1526.61 93.95 1526.57 93.42 1526.7 93.08C1526.97 92.69 1527.52 92.6 1528.34 92.79C1536.49 85.16 1541.86 79.71 1544.45 76.41C1546.5 73.92 1547.96 72.71 1548.87 72.71C1550.46 72.71 1553.92 74.75 1559.24 78.83ZM1487.44 205.71C1487.71 217.09 1481.79 224.87 1469.68 229.05C1468.19 233.04 1466.78 235.8 1465.45 237.31C1463.41 239.6 1460.36 240.96 1456.35 241.3C1453.8 241.5 1451.03 241.35 1448.11 240.91C1442.83 240.04 1436.42 239.02 1428.77 237.75C1426.63 237.36 1425.35 236 1424.9 233.62C1425.26 231.04 1427.72 229.54 1432.36 229.05C1438.69 228.61 1448.03 227.4 1460.36 225.5C1465 224.38 1468.27 221.57 1470.23 217.09C1471.37 214.81 1471.97 212.04 1471.97 208.68C1471.97 202.7 1469.18 192.2 1463.59 177.08C1458.04 162.35 1455.49 152.53 1455.85 147.62C1456.53 135.76 1466.82 127.5 1486.62 122.83C1488.58 122.34 1489.57 123.12 1489.57 125.12C1489.57 126.23 1488.85 127.15 1487.44 127.79C1477.84 132.26 1473.06 137.75 1473.06 144.31C1473.06 146.89 1473.46 150.1 1474.38 153.94C1475.24 157.78 1477.93 167.02 1482.38 181.65C1485.66 192.2 1487.35 200.22 1487.44 205.71ZM1508.78 123.95C1508.78 128.23 1507.69 135.08 1505.55 144.47C1504.78 147.72 1503.87 149.81 1502.91 150.73C1502.46 151.22 1500.96 151.95 1498.37 152.87C1495.08 154.19 1493.04 154.87 1492.22 154.87C1490.89 154.87 1490.26 153.94 1490.26 152C1490.26 150.98 1490.4 149.62 1490.76 147.87C1492.9 138.48 1493.72 131.97 1493.22 128.33C1492.76 124.63 1493.77 122.34 1496.22 121.42C1500.59 119.04 1503.42 117.83 1504.64 117.83C1507.37 117.83 1508.78 119.87 1508.78 123.95Z" />
			<path id="&lt;Compound Path&gt;" fill-rule="evenodd" class="shp0" d="M319.52 359.11L323.8 363.02C320.36 385.6 314.68 406.88 305.63 428.16L304.81 429.82L297.55 443.2L292.77 451.15C289.93 455.28 287.09 459.23 283.87 463.18L278.41 469.6L277.44 470.9L270.42 477.86C267.19 480.87 263.76 483.75 260.31 486.75L244.98 496.18L244.39 496.18L245.36 495.2C249.47 491.43 253.88 488.06 258.07 484.47L264.12 478.86L268.39 474.86L272.65 470.32L276.61 465.61L278.41 463.59L280.51 460.94L284.24 456.05C285.97 453.4 287.53 450.93 289.11 448.51L290.9 445.67L292.54 442.85L293.96 439.98L295.61 437.19L297.03 434.36L298.23 431.71L299.35 428.93L300.62 426.06L304.81 415.59L308.02 405.22L309.03 401.46L302.58 420.45L300 425.91L294.58 433.81L276.83 459.64L275.83 460.17L277.08 457.88C283.08 447.77 289.33 438.15 294.58 427.8C295.16 426.66 295.83 425.5 296.33 424.4L304.08 404.8L306.25 397.66L308.08 390.71L309.41 383.73L309.91 381.55C309.06 382.24 308.2 382.93 307.36 383.63C304.25 397.22 300.19 410.5 294.61 423.66L290.54 431.77L286.31 439.45L281.64 446.97L276.66 454.16L271.23 460.92L265.38 467.39L259.3 473.57L252.85 479.21L248.08 482.98L242.98 486.56L237.94 489.98L232.73 493.12L227.31 496.16L221.62 498.96L216.03 501.61L210.39 503.88L208.01 504.8L205.19 505.76L202.37 506.87L199.11 507.84L195.69 508.76L192.06 509.92L188.43 510.84L184.42 511.79L156.16 515.95C150.74 516.33 144.72 516.92 139.3 515.76L139.3 515.03L143.31 514.26C156.6 512.18 169.88 510.69 183.16 507.65L198.73 503.16L206.6 500.07L213.97 496.92L221.02 493.5L227.31 489.98L233.27 486.36L238.75 482.6L243.8 478.64L248.46 474.68L248.5 474.64L248.45 474.68L246.21 476.38L236.56 483.19L228.28 488.07L219.03 492.57L209.13 496.7L199.47 499.94C195.47 500.85 191.46 502.03 187.25 502.72L181.82 503.51C181.41 503.51 180.39 503.68 180.19 503.16L180.19 502.99L180.39 502.72L180.8 502.59C181 502.59 181.21 502.42 181.41 502.42L214.56 489.98C218.43 488.24 222.03 486.37 225.63 484.45L235.96 478.08L244.78 471.11L251.85 464.87L257.89 458.46L263.6 451.87L268.36 445.29L272.84 438.7L276.64 432.29C278.82 427.98 280.92 423.61 282.89 419.12L286.7 409.57L289.75 400.33L290.58 396.82C290.57 396.83 290.55 396.84 290.54 396.85C288.19 404.31 285.67 411.71 282.48 418.93L278.66 426.49L274.63 433.63L270.19 440.41L265.57 447.01L260.55 453.23L255.1 459.06L249.47 464.52L243.4 469.62L237.94 473.69L236.57 474.72L229.52 479.42L227.16 480.78L222.06 483.75L214.21 487.5L206.14 490.9L206.1 490.91L206.1 490.91L205.16 491.25L197.88 493.91L196.78 494.24L189.28 496.54L180.42 498.79L178.94 499.03L175.94 499.55L174.32 499.83L171.55 500.33L167.09 501.08L165.16 501.31L162.65 501.63L158.2 502.19L153.56 502.58L152.12 502.63L149.11 502.75L144.71 503.15L144.7 503.15L141.95 502.95L90.49 499.18L88.5 498.26L88.5 498.26L88.48 498.25L88.48 498.05C88.7 497.89 88.89 497.68 89.28 497.68L90.1 497.48L90.88 497.29L137.06 498.05C140.69 497.89 144.49 497.68 148.17 497.46L152.37 497.11L155.61 496.82L156.61 496.73L157.73 496.57L160.44 496.18L164.24 495.6L168.11 495.05L168.61 494.94L171.68 494.25L175.11 493.51L178.35 492.75L193.29 488.63L201.89 485.41L209.79 481.85L214.66 479.31L212.4 480.34L205.35 483.37L198.35 485.81L190.87 488.06L183.39 489.97L177.97 491.04L151.79 493.53C147.68 493.53 139.06 494.28 135.62 492L137.68 490.87L142.08 490.13C153.6 488.85 165.11 488.06 176.33 486.19L186.04 483.9L193.65 481.45L200.94 478.84L207.4 476.02L213.55 473L219.22 469.96L224.41 466.77L229.3 463.41L233.75 459.8L239.97 454.53L245.4 449.05L250.28 443.2L254.68 437.56L258.55 431.71L262.11 425.74L265.36 419.51L267.95 413.7C256.68 421.59 244.98 428.93 232.91 435.69L227.48 438.48L212.58 445.69L201.37 450.38C195.51 452.45 189.49 454.53 183.39 456.4L171.15 459.42L159.02 461.71L147.68 463.03L137.68 463.41L132.67 463.2L108.66 459.42C106 458.47 103.17 457.72 102.15 455.28L103.12 455.12L103.02 455.1L100.57 454.53L98.2 453.75L95.95 453.23L93.78 452.44L91.67 451.7L72.59 440.93C71.82 440.37 71.03 439.65 70.27 438.93L69.14 438.36L65.81 436.26L62.32 434.21L58.48 431.75C56.31 430.23 54.23 428.55 52.32 426.99L33.06 404.97C30.89 401.43 26.48 394.82 27.64 390.51L28.44 390.82L0.45 338.14L0.66 335.31L3.28 330.6C13.35 332.11 23.23 348.89 29.29 356.04L77.02 400.5L80.46 402.53L84.08 404.63L87.7 406.32L89.71 407.24L91.18 407.82L94.79 409.12L98.57 410.27L102.44 411.21L106.22 411.93L109.64 412.52L113.07 412.92L116.77 413.08L123.79 413.08L127.67 412.92L131.18 412.72L135.23 412.13C138.79 411.5 141.16 411.07 142.34 410.83C149.76 409.29 157.76 406.84 166.34 403.47L174.96 399.91L184.01 395.6L193.42 390.86L203.27 385.44L218.38 376.2L280.44 333.05L287.31 328.35L334.42 353.2L285.11 332.69C273.41 342.65 260.94 351.9 248.63 361.31L239.81 367.63L253.88 359.25L257.29 357.54L256.28 359.07C244.22 369.98 229.34 378.64 215.41 387.49L207.34 392.6L192.24 401.06L190.96 401.71L166.08 417.97C165.18 418.86 164.64 419.96 163.93 420.97L170.13 418.73L179.78 414.74L189.65 410.11L200.05 404.82L211.11 398.8L220.61 392.78L230.7 386.36L240.95 379.58L251.42 372.04L262.34 364.14C267.79 360.19 273.03 356.06 278.41 351.88C279.43 351.1 280.46 350.24 281.48 349.45C281.52 348.93 281.61 348.42 281.65 347.9L282.46 348.67C286.97 345.15 291.49 341.59 295.98 337.96L302.55 343.95L313.5 351.89L311.81 352.39L312.28 352.83L307.58 353.66L309.12 356.44L310.35 356.07L311.68 355.66C311.68 355.67 311.67 355.67 311.67 355.67L311.71 355.66C311.03 356.23 310.3 356.77 309.6 357.31L310.63 359.19L313.49 359.24L313.67 357.73L314.09 354.34L312.28 352.83L314.27 352.42L313.5 351.89L314.33 351.69L314.33 352.41L316.92 351.88C316.92 352.67 316.89 353.48 316.85 354.31L319.99 356.61C319.87 357.45 319.66 358.27 319.52 359.11ZM311.67 355.67C311.67 355.67 311.67 355.67 311.67 355.67L311.67 355.67ZM279.82 364.68C276.76 367.11 273.71 369.52 270.65 371.95C269.74 372.83 268.83 373.7 267.92 374.58C271.87 371.61 275.81 368.57 279.72 365.57C279.75 365.28 279.78 364.98 279.82 364.68ZM313.37 360.27C312.79 360.73 312.18 361.17 311.6 361.61C311.23 364.06 310.75 366.44 310.33 368.85L312.12 370.24L312.91 364.13L313.37 360.27Z" />
			<path id="&lt;Path&gt;" class="shp0" d="M336.71 354.35L336.71 357.75C336.71 358.46 336.71 359.09 336.88 359.8L337.14 360C337.5 358.46 337.94 356.8 338.29 355.3L336.71 354.35Z" />
			<path id="&lt;Path&gt;" class="shp0" d="M334.42 353.21L336.71 354.35L336.71 354.12L334.42 353.21Z" />
			<path id="&lt;Path&gt;" class="shp2" d="M77.28 433.98L87.87 436.75L89.89 437.18C90.83 437.36 91.85 437.53 92.86 437.7L97.51 438.44L102.23 439.05L107.08 439.39L112.27 439.78L117.27 439.78L122.72 439.61L128.05 439.26L133.64 438.7L142.48 437.18L151.92 434.93L161.49 432.34L171.47 428.92L181.85 424.85L192.37 420.17L203.63 414.8L215.02 408.61L224.99 402.6L235.38 396.06L246.03 389.14L256.82 381.7L268.01 373.82C276.17 367.67 284.6 361.48 292.62 355.12C292.82 352.52 293.02 349.88 293.23 347.11L294.98 353.26C297.61 351.4 300.03 349.53 302.39 347.46L302.8 358.1C299.43 379.05 294.24 398.88 285.41 418.7L281.36 426.49L276.98 433.98L272.39 441.08L267.4 448L262.21 454.37L256.62 460.34L250.82 465.97L244.62 471.2L242.39 472.89L232.82 479.65L224.59 484.49L215.42 488.95L205.58 493.06L196.01 496.27C192.03 497.17 188.05 498.34 183.87 499.04L178.48 499.82C178.07 499.82 177.06 499.98 176.86 499.47L176.86 499.29L177.06 499.04L177.47 498.9C177.67 498.9 177.88 498.73 178.07 498.73L210.97 486.39C214.82 484.66 218.39 482.8 221.97 480.9L232.21 474.58L240.97 467.65L247.99 461.46L253.99 455.1L259.65 448.57L264.37 442.03L268.82 435.49L272.59 429.13C274.75 424.85 276.84 420.52 278.8 416.06L282.57 406.58L285.6 397.41L287.77 388.24L289.58 379.62L290.8 372.35C269.83 391.22 248.6 409.18 224.59 424.85L201 437.18L179.49 445.97L170.86 448.78L161.89 451.03L152.65 452.9L143.42 454.2L134.52 454.93L130.88 454.93L127.24 455.1L123.93 454.93L120.5 454.75L117.27 454.54L114.1 454.2L111.06 453.8L108.09 453.46L105.47 452.9L102.9 452.29L100.27 451.77L97.84 451.21L95.48 450.43L93.26 449.91L91.1 449.13L89.01 448.4L70.07 437.7C68.05 436.23 65.48 434.2 65.48 431.55L77.28 433.98Z" />
			<path id="&lt;Path&gt;" class="shp3" d="M128.64 440.78L133.64 439.77L141.45 437.71L149.84 435.27L159.1 432.3L168.63 428.9L179.07 424.68L189.83 419.46L201.46 413.47L213.79 406.33L223.2 400.59L233 394.02L243.17 387.08L253.77 379.6C267.23 369.68 280.14 359.82 293.22 349.51L293.22 347.07L294.2 348.75C295.97 347.26 297.75 345.78 299.63 344.44L307.38 358.47C304.2 379.98 298.98 400.39 290.42 420.56L286.39 428.61L282.19 436.23L277.56 443.7L272.61 450.84L267.23 457.55L261.41 463.97L255.38 470.1L248.98 475.7L244.24 479.44L239.18 482.98L234.18 486.39L229.01 489.5L223.63 492.52L217.98 495.3L212.44 497.93L206.84 500.19L204.47 501.1L201.67 502.06L198.87 503.15L195.65 504.11L192.25 505.02L188.65 506.18L185.04 507.08L181.06 508.04L153.02 512.16C147.64 512.55 141.66 513.13 136.28 511.98L136.28 511.25L140.26 510.49C153.45 508.42 166.64 506.94 179.82 503.92L195.27 499.47L203.07 496.4L210.39 493.28L217.39 489.89L223.63 486.39L229.55 482.8L234.99 479.06L240 475.13L244.62 471.2L251.83 464.44L258.19 457.55L263.57 450.84L268.41 443.9L272.61 437L276.16 430.43C278.21 426.21 280.14 421.9 281.97 417.4L285.2 407.86L287.57 398.72L289.56 389.9L291.01 381.33L292.04 372.7L292.04 371.79C276.38 385.78 260.23 398.86 242.79 411.03L223.36 422.81L215.4 426.93L207.43 430.82L199.09 434.36L190.8 437.71L182.84 440.54L175.03 442.93L167.66 445.04L160.87 446.53L156.84 447.3L152.86 447.82L149.25 448.21L145.86 448.4L142.47 448.59L139.46 448.59L136.66 448.59L134.07 448.4L122.45 446.53C120.46 445.95 118.25 445.38 117.44 443.51L128.64 440.78Z" />
			<path id="&lt;Path&gt;" class="shp0" d="M154.92 416.96C15.95 264.2 176.93 164.37 166.91 64.52C293.92 218.58 91.7 270.2 159.49 410.76L154.92 416.96Z" />
			<path id="&lt;Path&gt;" class="shp4" d="M155.7 399.56C112.14 352.44 93.75 307.2 117.54 270.21C129.31 251.71 165.91 240.44 150.56 271.49C130.74 311.51 128.13 352.63 155.7 399.56Z" />
			<path id="&lt;Path&gt;" class="shp2" d="M6.44 336.83C13.95 341.42 19.38 348.49 24.45 354.6C26.93 357.61 29.57 360.75 32.07 363.97L39.36 373.47C44.15 379.74 48.84 385.79 54.04 391.53C59.49 397.41 64.57 403.28 71.1 408.97C66.69 408.95 62.41 407.67 58.32 406.1C54.22 404.41 50.55 402.39 46.87 400.02C39.5 395.17 33.26 388.83 28.13 382.04C25.56 378.63 23.2 375.13 21.05 371.55C18.94 367.99 16.85 364.41 15.03 360.43C11.47 352.59 9.29 345.01 6.44 336.83Z" />
		</g>
	</g>
</svg>